<svg width="56" height="56" viewBox="0 0 56 56" fill="none" xmlns="http://www.w3.org/2000/svg">
<g filter="url(#filter0_d_0_147)">
<circle cx="28" cy="24" r="24" fill="#B548C6"/>
<path fill-rule="evenodd" clip-rule="evenodd" d="M21 27.7895C21 28.5305 21.3284 29.1958 21.8421 29.6589V31.1579C21.8421 31.6211 22.2211 32 22.6842 32H23.5263C23.9895 32 24.3684 31.6211 24.3684 31.1579V30.3158H31.1053V31.1579C31.1053 31.6211 31.4842 32 31.9474 32H32.7895C33.2526 32 33.6316 31.6211 33.6316 31.1579V29.6589C34.1453 29.1958 34.4737 28.5305 34.4737 27.7895V19.3684C34.4737 16.4211 31.4589 16 27.7368 16C24.0147 16 21 16.4211 21 19.3684V27.7895ZM23.9474 28.6316C23.2484 28.6316 22.6842 28.0674 22.6842 27.3684C22.6842 26.6695 23.2484 26.1053 23.9474 26.1053C24.6463 26.1053 25.2105 26.6695 25.2105 27.3684C25.2105 28.0674 24.6463 28.6316 23.9474 28.6316ZM31.5263 28.6316C30.8274 28.6316 30.2632 28.0674 30.2632 27.3684C30.2632 26.6695 30.8274 26.1053 31.5263 26.1053C32.2253 26.1053 32.7895 26.6695 32.7895 27.3684C32.7895 28.0674 32.2253 28.6316 31.5263 28.6316ZM32.7895 23.5789H22.6842V19.3684H32.7895V23.5789Z" fill="white"/>
</g>
<defs>
<filter id="filter0_d_0_147" x="0" y="0" width="56" height="56" filterUnits="userSpaceOnUse" color-interpolation-filters="sRGB">
<feFlood flood-opacity="0" result="BackgroundImageFix"/>
<feColorMatrix in="SourceAlpha" type="matrix" values="0 0 0 0 0 0 0 0 0 0 0 0 0 0 0 0 0 0 127 0" result="hardAlpha"/>
<feOffset dy="4"/>
<feGaussianBlur stdDeviation="2"/>
<feComposite in2="hardAlpha" operator="out"/>
<feColorMatrix type="matrix" values="0 0 0 0 0 0 0 0 0 0 0 0 0 0 0 0 0 0 0.25 0"/>
<feBlend mode="normal" in2="BackgroundImageFix" result="effect1_dropShadow_0_147"/>
<feBlend mode="normal" in="SourceGraphic" in2="effect1_dropShadow_0_147" result="shape"/>
</filter>
</defs>
</svg>
