<svg width="241" height="241" viewBox="0 0 241 241" fill="none" xmlns="http://www.w3.org/2000/svg">
<path d="M40.0205 27.23H186.69C188.442 27.23 190.176 27.5751 191.794 28.2456C193.412 28.9161 194.882 29.8989 196.12 31.1378C197.358 32.3766 198.339 33.8473 199.009 35.4657C199.678 37.0842 200.022 38.8186 200.02 40.57V64.57H26.6904V40.57C26.6891 38.8186 27.0329 37.0842 27.7022 35.4657C28.3715 33.8473 29.3532 32.3766 30.5911 31.1378C31.8291 29.8989 33.299 28.9161 34.9169 28.2456C36.5349 27.5751 38.2691 27.23 40.0205 27.23Z" fill="white"/>
<path d="M53.66 201H213.66C217.198 201 220.591 199.542 223.093 196.946C225.595 194.351 227 190.83 227 187.16V62.6597C227 60.8427 226.655 59.0435 225.984 57.3649C225.314 55.6863 224.331 54.1612 223.092 52.8769C221.853 51.5925 220.383 50.574 218.764 49.8796C217.146 49.1852 215.411 48.8285 213.66 48.8299H40.33C38.5795 48.8299 36.8461 48.4721 35.2288 47.7771C33.6116 47.0821 32.142 46.0634 30.9042 44.7792C29.6664 43.495 28.6845 41.9704 28.0147 40.2925C27.3448 38.6145 27 36.8162 27 35V35V173.33C26.9987 176.963 27.6873 180.561 29.0265 183.918C30.3657 187.275 32.3293 190.325 34.805 192.895C37.2807 195.465 40.2201 197.503 43.4553 198.894C46.6905 200.284 50.1581 201 53.66 201V201Z" fill="#091440"/>
<path d="M193.351 127.23C193.398 136.058 196.926 144.51 203.168 150.753C209.41 156.995 217.863 160.523 226.691 160.57V93.8999C217.864 93.9446 209.411 97.4701 203.169 103.711C196.926 109.951 193.398 118.403 193.351 127.23Z" fill="white"/>
<path d="M73.3506 213.9C106.488 213.9 133.351 187.037 133.351 153.9C133.351 120.763 106.488 93.8999 73.3506 93.8999C40.2135 93.8999 13.3506 120.763 13.3506 153.9C13.3506 187.037 40.2135 213.9 73.3506 213.9Z" fill="white"/>
<path d="M71.5705 145.46H43.7205V152.05H71.5705V145.46Z" fill="#091440"/>
<path d="M102.981 145.46H75.2805V152.05H102.981V145.46Z" fill="#091440"/>
<path d="M71.5705 166.79H43.7205V174.27H71.5705V166.79Z" fill="#091440"/>
<path d="M102.981 166.79H75.2805V174.27H102.981V166.79Z" fill="#091440"/>
<path d="M102.98 124.27H43.7205V131.68H102.98V124.27Z" fill="#091440"/>
<path d="M71.5705 149.16H43.7205V162.2H71.5705V149.16Z" fill="#C4CBD2"/>
<path d="M102.981 149.16H75.2805V162.2H102.981V149.16Z" fill="#C4CBD2"/>
<path d="M71.5705 170.49H43.7205V183.53H71.5705V170.49Z" fill="#C4CBD2"/>
<path d="M102.981 170.49H75.2805V183.53H102.981V170.49Z" fill="#C4CBD2"/>
<path d="M102.98 127.97H43.7205V140.93H102.98V127.97Z" fill="#C4CBD2"/>
</svg>
